<?xml version="1.0" encoding="UTF-8" standalone="no"?>
<!DOCTYPE svg PUBLIC "-//W3C//DTD SVG 1.1//EN" "http://www.w3.org/Graphics/SVG/1.1/DTD/svg11.dtd">
<svg width="100%" height="100%" viewBox="0 0 912 300" version="1.1" xmlns="http://www.w3.org/2000/svg" xmlns:xlink="http://www.w3.org/1999/xlink" xml:space="preserve" xmlns:serif="http://www.serif.com/" style="fill-rule:evenodd;clip-rule:evenodd;stroke-linecap:round;stroke-linejoin:round;stroke-miterlimit:1.5;">
    <g transform="matrix(1,0,0,1,-543.986,-350)">
        <g transform="matrix(1,0,0,1,-18.6677,-4.70141)">
            <g transform="matrix(0.281996,0,0,0.291121,195.878,-23.3007)">
                <rect x="1300.74" y="1298.44" width="354.615" height="343.5" style="fill:rgb(71,33,131);stroke:rgb(255,0,149);stroke-opacity:0;stroke-width:3.49px;"/>
            </g>
            <g transform="matrix(0.281996,0,0,0.291121,195.878,76.6993)">
                <rect x="1300.74" y="1298.44" width="354.615" height="343.5" style="fill:rgb(75,86,210);stroke:rgb(255,0,149);stroke-opacity:0;stroke-width:3.49px;"/>
            </g>
            <g transform="matrix(0.281996,0,0,0.291121,195.878,176.699)">
                <rect x="1300.74" y="1298.44" width="354.615" height="343.5" style="fill:rgb(130,195,236);stroke:rgb(255,0,149);stroke-opacity:0;stroke-width:3.49px;"/>
            </g>
            <g transform="matrix(0.281996,0,0,0.291121,295.878,76.6993)">
                <rect x="1300.74" y="1298.44" width="354.615" height="343.5" style="fill:rgb(71,33,131);stroke:rgb(255,0,149);stroke-opacity:0;stroke-width:3.49px;"/>
            </g>
            <g transform="matrix(0.281996,0,0,0.291121,395.878,-23.3007)">
                <rect x="1300.74" y="1298.44" width="354.615" height="343.5" style="fill:rgb(130,195,236);stroke:rgb(255,0,149);stroke-opacity:0;stroke-width:3.49px;"/>
            </g>
            <g transform="matrix(0.281996,0,0,0.291121,395.878,176.699)">
                <rect x="1300.74" y="1298.44" width="354.615" height="343.5" style="fill:rgb(75,86,210);stroke:rgb(255,0,149);stroke-opacity:0;stroke-width:3.49px;"/>
            </g>
        </g>
        <g transform="matrix(0.979928,0,0,2.78752,-738.747,-3861.81)">
            <path d="M1680.09,1541.95L1680.09,1555.75L1666.21,1555.75L1666.21,1519.75L1680.09,1519.75L1680.09,1537.79L1729.42,1519.75L1745.78,1519.75L1702.18,1535.39L1751.59,1555.75L1734.37,1555.75L1693.46,1538.38L1680.09,1541.95Z" style="fill:rgb(71,33,131);fill-rule:nonzero;"/>
            <path d="M1779.71,1545.22L1767.94,1555.75L1753.55,1555.75L1795.33,1519.75L1811.1,1519.75L1852.23,1555.75L1838.06,1555.75L1826.36,1545.22L1779.71,1545.22ZM1803.04,1523.43C1802.21,1524.39 1801.23,1525.45 1800.09,1526.61C1798.95,1527.78 1797.9,1528.81 1796.93,1529.69L1783.92,1541.42L1822.22,1541.42L1809.07,1529.54C1808.39,1528.94 1807.49,1528.1 1806.38,1527.01C1805.27,1525.92 1804.15,1524.73 1803.04,1523.43Z" style="fill:rgb(71,33,131);fill-rule:nonzero;"/>
            <path d="M1893.8,1523.74L1893.8,1555.75L1879.99,1555.75L1879.99,1523.74L1844.82,1523.74L1844.82,1519.75L1928.97,1519.75L1928.97,1523.74L1893.8,1523.74Z" style="fill:rgb(71,33,131);fill-rule:nonzero;"/>
            <path d="M1958.47,1539.07L1958.47,1555.75L1944.59,1555.75L1944.59,1519.75L1958.47,1519.75L1958.47,1534.98L2013.84,1534.98L2013.84,1519.75L2027.72,1519.75L2027.72,1555.75L2013.84,1555.75L2013.84,1539.07L1958.47,1539.07Z" style="fill:rgb(71,33,131);fill-rule:nonzero;"/>
            <path d="M2132.72,1551.76L2132.72,1555.75L2052.06,1555.75L2052.06,1519.75L2129.74,1519.75L2129.74,1523.74L2065.94,1523.74L2065.94,1535.29L2125.38,1535.29L2125.38,1539.22L2065.94,1539.22L2065.94,1551.76L2132.72,1551.76Z" style="fill:rgb(71,33,131);fill-rule:nonzero;"/>
            <path d="M2165.2,1540.8L2165.2,1555.75L2151.33,1555.75L2151.33,1519.75L2199.5,1519.75C2211.03,1519.75 2219.93,1520.66 2226.21,1522.48C2232.48,1524.29 2235.62,1526.81 2235.62,1530.05C2235.62,1532.72 2233.4,1534.97 2228.97,1536.79C2224.54,1538.62 2218.42,1539.77 2210.62,1540.24L2239.69,1555.75L2223.7,1555.75L2197.11,1540.8L2165.2,1540.8ZM2221.67,1530.1C2221.67,1528.01 2219.64,1526.41 2215.6,1525.31C2211.55,1524.21 2205.73,1523.66 2198.12,1523.66L2165.2,1523.66L2165.2,1536.95L2198.7,1536.95C2206.02,1536.95 2211.68,1536.35 2215.67,1535.14C2219.67,1533.94 2221.67,1532.26 2221.67,1530.1Z" style="fill:rgb(71,33,131);fill-rule:nonzero;"/>
            <path d="M1731.82,1605.79L1731.82,1609.78L1666.21,1609.78L1666.21,1573.78L1680.09,1573.78L1680.09,1605.79L1731.82,1605.79Z" style="fill:rgb(75,86,210);fill-rule:nonzero;"/>
            <path d="M1763.22,1599.25L1751.44,1609.78L1737.06,1609.78L1778.84,1573.78L1794.61,1573.78L1835.74,1609.78L1821.57,1609.78L1809.87,1599.25L1763.22,1599.25ZM1786.54,1577.46C1785.72,1578.41 1784.74,1579.48 1783.6,1580.64C1782.46,1581.81 1781.41,1582.83 1780.44,1583.72L1767.43,1595.44L1805.73,1595.44L1792.57,1583.57C1791.89,1582.97 1791,1582.13 1789.88,1581.04C1788.77,1579.95 1787.65,1578.76 1786.54,1577.46Z" style="fill:rgb(75,86,210);fill-rule:nonzero;"/>
            <path d="M1927.44,1599.63C1927.44,1602.84 1924.12,1605.33 1917.49,1607.11C1910.85,1608.89 1901.62,1609.78 1889.8,1609.78L1848.24,1609.78L1848.24,1573.78L1885.44,1573.78C1897.45,1573.78 1906.47,1574.51 1912.47,1575.97C1918.48,1577.42 1921.48,1579.61 1921.48,1582.52C1921.48,1584.65 1919.79,1586.44 1916.4,1587.88C1913.01,1589.33 1908.21,1590.3 1902.01,1590.8C1910.15,1591.14 1916.42,1592.09 1920.83,1593.67C1925.24,1595.25 1927.44,1597.23 1927.44,1599.63ZM1907.53,1583.11C1907.53,1581.16 1905.64,1579.78 1901.86,1578.94C1898.08,1578.11 1892.61,1577.69 1885.44,1577.69L1862.11,1577.69L1862.11,1589.08L1885.44,1589.08C1892.85,1589.08 1898.39,1588.59 1902.04,1587.62C1905.7,1586.64 1907.53,1585.13 1907.53,1583.11ZM1913.42,1599.25C1913.42,1595.01 1904.94,1592.89 1887.98,1592.89L1862.11,1592.89L1862.11,1605.87L1889.07,1605.87C1897.55,1605.87 1903.73,1605.31 1907.6,1604.21C1911.48,1603.1 1913.42,1601.45 1913.42,1599.25Z" style="fill:rgb(75,86,210);fill-rule:nonzero;"/>
        </g>
    </g>
</svg>
